# xmcd
#
# Track frame offsets: 
#        150
#        28145
#        55027
#        73715
#        88642
#        115535
#        140392
#        156155
#        181035
#
# Disc length: 3095 seconds
#
# Revision: 4
# Processed by: cddbd v1.5.2PL0 Copyright (c) Steve Scherf et al.
# Submitted via: ExactAudioCopy v1.0b6
#
DISCID=6d0c1509
DTITLE=Bob Dylan - Highway 61 Revisited (紙ジャケット仕様) Blu-spec CD2 2003 R
DTITLE=emaster SICP-30476
DYEAR=1965
DGENRE=Blues-Rock
TTITLE0=Like a Rolling Stone
TTITLE1=Tombstone Blues
TTITLE2=It Takes A Lot To Laugh, It Takes A Train To Cry
TTITLE3=From A Buick 6
TTITLE4=Ballad Of A Thin Man
TTITLE5=Queen Jane Approximately
TTITLE6=Highway 61 Revisited
TTITLE7=Just like Tom Thumb's Blues
TTITLE8=Desolation Row
EXTD=All songs by Bob Dylan.\nBob Dylan: vocals, guitar, harmonica, pi
EXTD=ano, police car\nMichael Bloomfield, Charlie McCoy: guitar\nAl Ko
EXTD=oper: organ, piano (Hohner pianet]\nPaul Griffin: piano, organ\nF
EXTD=rank Owens: piano\nHarvey Goldstein [Harvey Brooks], Russ Savakus
EXTD=: bass\nBobby Gregg, Sam Lay: drums\nRecorded at Columbia Studios
EXTD=, New York US-NY, 1965-06-15/08-04.\nProduced by Bob Johnston, ex
EXTD=cept "Like a Rolling Stone", produced by Tom Wilson.\nOriginally 
EXTD=released as Columbia LP CS-9189/C-2389 (1965-08-30).\nCD: Columbi
EXTD=a CK 92399 (2004-06-01), UPC 827969239926.
EXTT0=(Bob Dylan)
EXTT1=(Bob Dylan)
EXTT2=(Bob Dylan)
EXTT3=(Bob Dylan)
EXTT4=(Bob Dylan)
EXTT5=(Bob Dylan)
EXTT6=(Bob Dylan)
EXTT7=(Bob Dylan)
EXTT8=(Bob Dylan)
PLAYORDER=
